Coordinates
version=1
nRows=11
nColumns=36
inDegrees=yes

Units are S.I. units (second, meters, Newtons, ...)
If the header above contains a line with 'inDegrees', this indicates whether rotational values are in degrees (yes) or radians (no).

endheader
time	pelvis_tilt	pelvis_list	pelvis_rotation	pelvis_tx	pelvis_ty	pelvis_tz	hip_flexion_r	hip_adduction_r	hip_rotation_r	knee_angle_r	knee_angle_r_beta	ankle_angle_r	subtalar_angle_r	mtp_angle_r	hip_flexion_l	hip_adduction_l	hip_rotation_l	knee_angle_l	knee_angle_l_beta	ankle_angle_l	subtalar_angle_l	mtp_angle_l	lumbar_extension	lumbar_bending	lumbar_rotation	arm_flex_r	arm_add_r	arm_rot_r	elbow_flex_r	pro_sup_r	arm_flex_l	arm_add_l	arm_rot_l	elbow_flex_l	pro_sup_l
      0.00000000	     -0.86995850	     -4.57736386	      7.69943810	      0.82732434	      0.91685496	      0.05376892	     29.37045543	      3.89458214	      4.76256939	      9.12865087	      0.15932501	     -5.45271305	    -13.35084915	     -6.33646387	     -5.45848159	      0.67399053	      6.16763591	      4.16131440	      0.07262864	     16.10693251	     -2.56400379	     -6.33646387	      2.50349026	      0.27220786	     -3.75435612	     15.77359120	      3.50040288	     51.09250799	    114.15341089	     89.89277881	     31.31943928	     -1.19844635	     65.66267253	    106.63023433	     89.12249878
      0.01666670	     -0.55787287	     -6.11049891	      7.96148217	      0.82203364	      0.91795231	      0.05513172	     28.90783281	      5.15014949	      6.82043584	      5.28549608	      0.09224931	     -5.76034892	     -9.24264813	     -6.37824229	     -4.11011360	     -0.84231274	      7.51282094	      6.78321102	      0.11838937	     16.72581344	     -4.62374881	     -6.37824229	      1.50581321	      1.71690094	     -3.69791925	     18.79561204	     -0.35371650	     58.37369667	    118.88537004	     91.08708806	     33.50814851	     -2.74151583	     65.33431928	    108.12760803	     90.23934618
      0.03333330	     -1.73892411	     -5.83771470	      7.90321230	      0.82859411	      0.92106928	      0.05197037	     29.24705262	      4.50514524	      5.35841524	      2.40796269	      0.04202688	     -4.99783699	     -5.47169118	     -6.67842375	     -1.94991855	     -0.13460082	      6.88393690	      8.33942912	      0.14555050	     17.83077620	     -5.77555702	     -6.67842375	      3.51033134	      1.39835349	     -6.53624705	     20.17656500	      1.50303426	     60.52033339	    116.20013006	     99.89824030	     31.48321044	     -5.47123536	     63.46492612	    108.52617160	    103.76982319
      0.05000000	     -0.99304965	     -6.22019194	      8.63337027	      0.82846031	      0.91623632	      0.05238517	     28.26292166	      4.65703345	      4.26351308	      1.82679389	      0.03188357	     -2.57389908	     -3.37792040	     -6.82349134	     -2.17615853	     -0.59388704	      7.35096171	      8.89022088	      0.15516363	     20.19451680	     -4.43529163	     -6.82349134	      3.39215165	      1.78129317	     -8.16345386	     21.01889279	      2.46502962	     61.11738900	    115.04670747	     99.87206469	     31.50642813	     -5.98085983	     63.45744188	    108.20899440	    103.17967725
      0.06666670	     -0.17764951	     -6.46831772	      8.82941102	      0.82064150	      0.91742948	      0.05445402	     27.79542358	      5.21891511	      3.91208246	      2.28590506	      0.03989657	     -2.01774456	     -2.73419036	     -6.83625679	     -2.15663436	     -0.82642092	      7.23966961	      9.77952485	      0.17068491	     21.61315550	     -4.30940312	     -6.83625679	      2.43601560	      1.98897530	     -8.51881095	     21.80609228	      2.94754832	     61.31265089	    114.09765773	    100.07496999	     32.19887952	     -5.62854401	     64.32199603	    108.05780662	    103.32167894
      0.08333330	      0.84698919	     -6.68423505	      8.96688115	      0.81928361	      0.91610947	      0.05471057	     27.32065927	      5.84924528	      3.39896634	      3.25079399	      0.05673706	     -1.77687286	     -2.51670819	     -7.16686065	     -2.78145098	     -1.11820871	      6.77192050	     10.26710704	      0.17919482	     22.68977857	     -3.65828597	     -7.16686065	      0.85304930	      2.38070226	     -9.02269233	     22.75195484	      3.29213958	     61.54108515	    113.56922073	    100.83037757	     33.14308610	     -5.49583349	     65.24842070	    108.60981955	    102.71639509
      0.10000000	      1.54184861	     -6.77358930	      9.07340375	      0.81801765	      0.91561620	      0.05436461	     27.07716736	      6.27454570	      3.04391905	      4.27261279	      0.07457116	     -2.04391758	     -2.84662612	     -7.20701884	     -3.11559463	     -1.27125413	      6.54397723	     10.84807875	      0.18933469	     23.19683371	     -3.90082646	     -7.20701884	     -0.41424157	      2.57361082	     -9.49341250	     23.10818893	      3.29404029	     61.83866299	    113.79089107	     99.14917705	     33.91856557	     -5.16167762	     65.97089557	    109.14854587	    101.04319648
      0.11666670	      2.45497949	     -6.71141350	      9.03063156	      0.81690282	      0.92519693	      0.05478008	     26.44707753	      6.61183871	      2.70641009	      5.34887941	      0.09335556	     -2.66600141	     -3.04294391	     -7.24752635	     -3.86389120	     -1.35384015	      6.05996185	     11.21514216	      0.19574116	     23.55100615	     -3.75528143	     -7.24752635	     -1.99792762	      2.73783415	     -9.71319264	     23.28530621	      3.08044582	     62.45037463	    113.51874784	     98.38741808	     34.05593972	     -5.32152660	     66.93017581	    109.42503125	    100.27785948
      0.13333330	      3.05459027	     -6.63767359	      9.02939040	      0.80957192	      0.92043555	      0.05707910	     26.40969950	      6.80338480	      2.52540714	      5.98447674	      0.10444882	     -3.42680716	     -3.30315988	     -7.28823764	     -4.14137146	     -1.36164647	      5.83850159	     11.55209864	      0.20162216	     23.90752109	     -3.52077449	     -7.28823764	     -3.25276630	      2.82302402	     -9.69359510	     23.85728226	      3.13918227	     62.22516465	    113.50014206	     96.97435484	     34.81227314	     -5.35212791	     68.07557739	    110.14827730	     98.83723513
      0.15000000	      3.30384626	     -6.59733493	      8.85764476	      0.81633654	      0.92753565	      0.05550186	     26.37972251	      7.03866861	      2.54087957	      6.62028386	      0.11554575	     -3.84161044	     -3.63266268	     -7.29192803	     -4.17660001	     -1.32096655	      5.48939553	     11.99378762	      0.20933108	     24.01679344	     -3.74463721	     -7.29192803	     -3.94014094	      2.97857128	     -9.58398988	     23.45136952	      2.90421993	     62.19540700	    113.41791478	     96.91797642	     34.40758567	     -5.43234144	     68.04621323	    110.14207109	     98.82599820
      0.16666670	      3.60781065	     -6.57116431	      8.72772438	      0.81663669	      0.93135739	      0.05552927	     26.15099738	      7.30885971	      2.52330045	      7.17844549	      0.12528751	     -4.34767227	     -3.94629055	     -7.30723481	     -4.41433920	     -1.33699078	      4.99599241	     12.10308246	      0.21123864	     23.80433567	     -3.74490000	     -7.30723481	     -4.45098847	      3.15281034	     -9.24906810	     22.86797110	      2.46011984	     62.11456849	    113.30021878	     96.11735797	     33.62297921	     -5.47590146	     67.85688784	    110.00384707	     98.09745713
